<svg width="512px" height="512px" version="1.1" xmlns="http://www.w3.org/2000/svg" xmlns:xlink="http://www.w3.org/1999/xlink" xml:space="preserve" xmlns:serif="http://www.serif.com/" style="fill-rule:evenodd;clip-rule:evenodd;stroke-linejoin:round;stroke-miterlimit:2;">
    <g transform="matrix(1,0,0,1,-66.61,-161)">
        <g transform="matrix(0.769472,0,0,0.768661,15.3555,109.316)">
            <path d="M541.333,733.333C523.047,733.333 508,718.286 508,700L508,613.333C510.093,593.183 503.548,573.062 490,558C484.326,551.846 481.173,543.775 481.173,535.404C481.173,518.688 493.748,504.426 510.333,502.333C591.667,492.667 666.667,466.667 666.667,325.667C666.692,299.339 658.92,273.584 644.333,251.667C630.877,231.495 625.959,206.787 630.667,183C633.671,167.478 633.671,151.522 630.667,136C605.707,144.439 582.205,156.696 561,172.333C552.887,178.095 542.606,179.931 533,177.333C472.85,160.337 409.15,160.337 349,177.333C339.394,179.931 329.113,178.095 321,172.333C299.665,156.515 275.914,144.245 250.667,136C247.497,151.506 247.497,167.494 250.667,183C255.035,207.087 249.894,231.953 236.333,252.333C221.81,274.405 214.047,300.246 214,326.667C214,456.333 276.667,491 370.667,503C383.193,504.554 393.805,513.095 398,525C401.943,536.539 399.251,549.355 391,558.333C377.899,572.338 371.245,591.209 372.667,610.333L372.667,700C372.667,718.286 357.619,733.333 339.333,733.333C321.047,733.333 306,718.286 306,700L306,681C239.538,688.643 173.492,662.451 130.333,611.333C119.4,599.215 106.282,589.264 91.667,582C76.965,578.211 66.61,564.849 66.61,549.667C66.61,531.349 81.683,516.277 100,516.277C102.811,516.277 105.611,516.632 108.333,517.333C133.973,526.674 156.888,542.256 175,562.667C208.333,596 241.667,625.333 305,613.333C303.886,595.437 306.497,577.503 312.667,560.667C244,543.333 146,494 146,327.333C145.912,287.859 157.513,249.229 179.333,216.333C183.385,210.262 184.939,202.854 183.667,195.667C176.932,159.69 180.753,122.521 194.667,88.667C198.492,79.532 206.196,72.562 215.667,69.667C227,66.333 267.667,59.667 344.667,109.667C406.996,94.668 472.004,94.668 534.333,109.667C611.333,59.667 652,66 663,69.667C672.47,72.562 680.174,79.532 684,88.667C697.941,122.631 701.762,159.914 695,196C693.623,202.566 694.945,209.418 698.667,215C720.55,247.99 732.154,286.746 732,326.333C732,495.333 634.667,544.333 565.333,559.667C571.441,577.553 573.934,596.476 572.667,615.333L572.667,700C572.698,717.555 558.857,732.28 541.333,733.333Z" style="fill:white;fill-rule:nonzero;"/>
        </g>
    </g>
</svg>
