<?xml version="1.0" encoding="UTF-8" standalone="no"?>
<!DOCTYPE svg PUBLIC "-//W3C//DTD SVG 1.1//EN" "http://www.w3.org/Graphics/SVG/1.1/DTD/svg11.dtd">
<svg width="100%" height="100%" viewBox="0 0 600 450" version="1.1" xmlns="http://www.w3.org/2000/svg" xmlns:xlink="http://www.w3.org/1999/xlink" xml:space="preserve" xmlns:serif="http://www.serif.com/" style="fill-rule:evenodd;clip-rule:evenodd;stroke-linejoin:round;stroke-miterlimit:2;">
    <g id="Artboard1" transform="matrix(1.0508,0,0,1.07999,0,1.91845e-15)">
        <rect x="0" y="-0" width="570.992" height="416.67" style="fill:none;"/>
        <g transform="matrix(0.951653,0,0,0.925933,-627.951,55.556)">
            <g transform="matrix(0.53125,0,0,0.53125,581.071,-94.375)">
                <g id="Banner" transform="matrix(1,0,0,1,649,108)">
                    <path d="M128,-43.294L0,-43.294L0,512L64,480L128,512L128,-43.294Z" style="fill:url(#_Linear1);"/>
                </g>
                <g id="icon" transform="matrix(1,0,0,1,585,108)">
                    <path d="M168,382C168,360.057 149.943,342 128,342C106.057,342 88,360.057 88,382C88,403.943 106.057,422 128,422L165,422L168,410L162,410L160,414L152,414C162.065,406.452 168,394.581 168,382ZM96,382C96,364.445 110.445,350 128,350C145.555,350 160,364.445 160,382C160,399.555 145.555,414 128,414C110.445,414 96,399.555 96,382ZM128,393C132.415,393 136,396.585 136,401C136,405.415 132.415,409 128,409C123.585,409 120,405.415 120,401C120,396.585 123.585,393 128,393ZM144,383C148.415,383 152,386.585 152,391C152,395.415 148.415,399 144,399C139.585,399 136,395.415 136,391C136,386.585 139.585,383 144,383ZM112,383C116.415,383 120,386.585 120,391C120,395.415 116.415,399 112,399C107.585,399 104,395.415 104,391C104,386.585 107.585,383 112,383ZM144,365C148.415,365 152,368.585 152,373C152,377.415 148.415,381 144,381C139.585,381 136,377.415 136,373C136,368.585 139.585,365 144,365ZM112,365C116.415,365 120,368.585 120,373C120,377.415 116.415,381 112,381C107.585,381 104,377.415 104,373C104,368.585 107.585,365 112,365ZM128,355C132.415,355 136,358.585 136,363C136,367.415 132.415,371 128,371C123.585,371 120,367.415 120,363C120,358.585 123.585,355 128,355Z" style="fill:white;fill-rule:nonzero;"/>
                </g>
            </g>
            <g transform="matrix(1.71524,0,0,1.71524,-477.175,-587.323)">
                <g transform="matrix(10.6604,0,0,10.6604,670.78,556.261)">
                    <path d="M0.568,-0.029C0.517,-0.002 0.452,0.012 0.375,0.012C0.275,0.012 0.196,-0.02 0.136,-0.084C0.076,-0.149 0.046,-0.233 0.046,-0.337C0.046,-0.449 0.08,-0.539 0.147,-0.608C0.214,-0.677 0.3,-0.712 0.403,-0.712C0.47,-0.712 0.525,-0.702 0.568,-0.683L0.568,-0.596C0.518,-0.624 0.463,-0.638 0.402,-0.638C0.322,-0.638 0.257,-0.611 0.207,-0.557C0.157,-0.503 0.132,-0.432 0.132,-0.342C0.132,-0.257 0.155,-0.189 0.202,-0.138C0.249,-0.087 0.31,-0.062 0.386,-0.062C0.456,-0.062 0.517,-0.078 0.568,-0.109L0.568,-0.029Z" style="fill:rgb(102,102,102);fill-rule:nonzero;"/>
                </g>
                <g transform="matrix(10.6604,0,0,10.6604,677.114,556.261)">
                    <path d="M0.496,-0L0.384,-0L0.163,-0.24L0.161,-0.24L0.161,-0L0.081,-0L0.081,-0.5L0.161,-0.5L0.161,-0.271L0.163,-0.271L0.373,-0.5L0.478,-0.5L0.246,-0.259L0.496,-0Z" style="fill:rgb(102,102,102);fill-rule:nonzero;"/>
                </g>
                <g transform="matrix(10.6604,0,0,10.6604,682.146,556.261)">
                    <path d="M0.163,-0.072L0.161,-0.072L0.161,0.23L0.081,0.23L0.081,-0.5L0.161,-0.5L0.161,-0.412L0.163,-0.412C0.202,-0.479 0.26,-0.512 0.336,-0.512C0.4,-0.512 0.451,-0.489 0.487,-0.445C0.523,-0.4 0.541,-0.34 0.541,-0.265C0.541,-0.181 0.521,-0.114 0.48,-0.064C0.439,-0.013 0.384,0.012 0.313,0.012C0.248,0.012 0.198,-0.016 0.163,-0.072ZM0.161,-0.274L0.161,-0.204C0.161,-0.163 0.175,-0.128 0.201,-0.099C0.228,-0.07 0.262,-0.056 0.304,-0.056C0.352,-0.056 0.39,-0.074 0.418,-0.111C0.445,-0.148 0.459,-0.2 0.459,-0.266C0.459,-0.322 0.446,-0.365 0.42,-0.397C0.395,-0.429 0.36,-0.444 0.316,-0.444C0.269,-0.444 0.232,-0.428 0.204,-0.396C0.175,-0.363 0.161,-0.323 0.161,-0.274Z" style="fill:rgb(102,102,102);fill-rule:nonzero;"/>
                </g>
                <g transform="matrix(10.6604,0,0,10.6604,688.147,556.261)">
                    <path d="M0.5,-0L0.428,-0L0.428,-0.399C0.421,-0.385 0.41,-0.365 0.395,-0.34L0.164,-0L0.081,-0L0.081,-0.5L0.154,-0.5L0.154,-0.106C0.158,-0.115 0.167,-0.132 0.18,-0.154L0.417,-0.5L0.5,-0.5L0.5,-0Z" style="fill:rgb(102,102,102);fill-rule:nonzero;"/>
                </g>
                <g transform="matrix(10.6604,0,0,10.6604,694.074,556.261)">
                    <path d="M0.496,-0L0.416,-0L0.416,-0.432L0.161,-0.432L0.161,-0L0.081,-0L0.081,-0.5L0.496,-0.5L0.496,-0Z" style="fill:rgb(102,102,102);fill-rule:nonzero;"/>
                </g>
                <g transform="matrix(10.6604,0,0,10.6604,699.961,556.261)">
                    <path d="M0.395,-0.432L0.245,-0.432L0.245,-0L0.165,-0L0.165,-0.432L0.015,-0.432L0.015,-0.5L0.395,-0.5L0.395,-0.432Z" style="fill:rgb(102,102,102);fill-rule:nonzero;"/>
                </g>
                <g transform="matrix(10.6604,0,0,10.6604,704.067,556.261)">
                    <path d="M0.154,-0.111L0.076,0.129L0.019,0.129L0.076,-0.111L0.154,-0.111Z" style="fill:rgb(102,102,102);fill-rule:nonzero;"/>
                </g>
                <g transform="matrix(10.6604,0,0,10.6604,708.765,556.261)">
                    <path d="M0.496,-0L0.416,-0L0.416,-0.432L0.161,-0.432L0.161,-0L0.081,-0L0.081,-0.5L0.496,-0.5L0.496,-0Z" style="fill:rgb(102,102,102);fill-rule:nonzero;"/>
                </g>
                <g transform="matrix(10.6604,0,0,10.6604,714.651,556.261)">
                    <path d="M0.163,-0.072L0.161,-0.072L0.161,0.23L0.081,0.23L0.081,-0.5L0.161,-0.5L0.161,-0.412L0.163,-0.412C0.202,-0.479 0.26,-0.512 0.336,-0.512C0.4,-0.512 0.451,-0.489 0.487,-0.445C0.523,-0.4 0.541,-0.34 0.541,-0.265C0.541,-0.181 0.521,-0.114 0.48,-0.064C0.439,-0.013 0.384,0.012 0.313,0.012C0.248,0.012 0.198,-0.016 0.163,-0.072ZM0.161,-0.274L0.161,-0.204C0.161,-0.163 0.175,-0.128 0.201,-0.099C0.228,-0.07 0.262,-0.056 0.304,-0.056C0.352,-0.056 0.39,-0.074 0.418,-0.111C0.445,-0.148 0.459,-0.2 0.459,-0.266C0.459,-0.322 0.446,-0.365 0.42,-0.397C0.395,-0.429 0.36,-0.444 0.316,-0.444C0.269,-0.444 0.232,-0.428 0.204,-0.396C0.175,-0.363 0.161,-0.323 0.161,-0.274Z" style="fill:rgb(102,102,102);fill-rule:nonzero;"/>
                </g>
                <g transform="matrix(10.6604,0,0,10.6604,720.652,556.261)">
                    <path d="M0.483,-0.23L0.13,-0.23C0.131,-0.174 0.146,-0.131 0.175,-0.101C0.203,-0.071 0.243,-0.056 0.293,-0.056C0.349,-0.056 0.401,-0.074 0.448,-0.111L0.448,-0.036C0.404,-0.004 0.346,0.012 0.274,0.012C0.203,0.012 0.148,-0.011 0.107,-0.056C0.067,-0.102 0.047,-0.166 0.047,-0.248C0.047,-0.326 0.069,-0.389 0.113,-0.438C0.157,-0.487 0.212,-0.512 0.277,-0.512C0.343,-0.512 0.393,-0.491 0.429,-0.448C0.465,-0.406 0.483,-0.347 0.483,-0.272L0.483,-0.23ZM0.401,-0.298C0.401,-0.344 0.389,-0.38 0.367,-0.406C0.345,-0.431 0.315,-0.444 0.276,-0.444C0.238,-0.444 0.206,-0.431 0.18,-0.404C0.153,-0.377 0.137,-0.341 0.131,-0.298L0.401,-0.298Z" style="fill:rgb(102,102,102);fill-rule:nonzero;"/>
                </g>
                <g transform="matrix(10.6604,0,0,10.6604,725.96,556.261)">
                    <path d="M0.081,-0L0.081,-0.5L0.299,-0.5C0.348,-0.5 0.387,-0.489 0.415,-0.467C0.444,-0.445 0.458,-0.416 0.458,-0.378C0.458,-0.313 0.426,-0.274 0.362,-0.26C0.439,-0.25 0.477,-0.211 0.477,-0.144C0.477,-0.103 0.461,-0.069 0.43,-0.042C0.399,-0.014 0.36,-0 0.313,-0L0.081,-0ZM0.161,-0.432L0.161,-0.291L0.281,-0.291C0.346,-0.291 0.378,-0.316 0.378,-0.366C0.378,-0.41 0.349,-0.432 0.291,-0.432L0.161,-0.432ZM0.161,-0.223L0.161,-0.068L0.3,-0.068C0.365,-0.068 0.397,-0.095 0.397,-0.147C0.397,-0.197 0.361,-0.223 0.288,-0.223L0.161,-0.223Z" style="fill:rgb(102,102,102);fill-rule:nonzero;"/>
                </g>
                <g transform="matrix(10.6604,0,0,10.6604,731.341,556.261)">
                    <path d="M0.163,-0.072L0.161,-0.072L0.161,0.23L0.081,0.23L0.081,-0.5L0.161,-0.5L0.161,-0.412L0.163,-0.412C0.202,-0.479 0.26,-0.512 0.336,-0.512C0.4,-0.512 0.451,-0.489 0.487,-0.445C0.523,-0.4 0.541,-0.34 0.541,-0.265C0.541,-0.181 0.521,-0.114 0.48,-0.064C0.439,-0.013 0.384,0.012 0.313,0.012C0.248,0.012 0.198,-0.016 0.163,-0.072ZM0.161,-0.274L0.161,-0.204C0.161,-0.163 0.175,-0.128 0.201,-0.099C0.228,-0.07 0.262,-0.056 0.304,-0.056C0.352,-0.056 0.39,-0.074 0.418,-0.111C0.445,-0.148 0.459,-0.2 0.459,-0.266C0.459,-0.322 0.446,-0.365 0.42,-0.397C0.395,-0.429 0.36,-0.444 0.316,-0.444C0.269,-0.444 0.232,-0.428 0.204,-0.396C0.175,-0.363 0.161,-0.323 0.161,-0.274Z" style="fill:rgb(102,102,102);fill-rule:nonzero;"/>
                </g>
                <g transform="matrix(10.6604,0,0,10.6604,737.342,556.261)">
                    <path d="M0.439,-0L0.359,-0L0.359,-0.078L0.357,-0.078C0.322,-0.018 0.271,0.012 0.203,0.012C0.153,0.012 0.114,-0.001 0.086,-0.028C0.058,-0.054 0.044,-0.089 0.044,-0.133C0.044,-0.226 0.099,-0.281 0.209,-0.296L0.359,-0.317C0.359,-0.402 0.325,-0.444 0.256,-0.444C0.196,-0.444 0.141,-0.424 0.093,-0.383L0.093,-0.465C0.142,-0.496 0.199,-0.512 0.263,-0.512C0.38,-0.512 0.439,-0.45 0.439,-0.325L0.439,-0ZM0.359,-0.253L0.238,-0.236C0.201,-0.231 0.173,-0.222 0.154,-0.209C0.135,-0.196 0.126,-0.172 0.126,-0.139C0.126,-0.114 0.135,-0.094 0.152,-0.079C0.17,-0.063 0.193,-0.056 0.222,-0.056C0.261,-0.056 0.294,-0.07 0.32,-0.097C0.346,-0.125 0.359,-0.16 0.359,-0.203L0.359,-0.253Z" style="fill:rgb(102,102,102);fill-rule:nonzero;"/>
                </g>
                <g transform="matrix(10.6604,0,0,10.6604,742.499,556.261)">
                    <path d="M0.794,0.182L0.724,0.182L0.724,-0L0.081,-0L0.081,-0.5L0.161,-0.5L0.161,-0.068L0.36,-0.068L0.36,-0.5L0.44,-0.5L0.44,-0.068L0.639,-0.068L0.639,-0.5L0.719,-0.5L0.719,-0.068L0.794,-0.068L0.794,0.182Z" style="fill:rgb(102,102,102);fill-rule:nonzero;"/>
                </g>
                <g transform="matrix(10.6604,0,0,10.6604,751.019,556.261)">
                    <path d="M0.439,-0L0.359,-0L0.359,-0.078L0.357,-0.078C0.322,-0.018 0.271,0.012 0.203,0.012C0.153,0.012 0.114,-0.001 0.086,-0.028C0.058,-0.054 0.044,-0.089 0.044,-0.133C0.044,-0.226 0.099,-0.281 0.209,-0.296L0.359,-0.317C0.359,-0.402 0.325,-0.444 0.256,-0.444C0.196,-0.444 0.141,-0.424 0.093,-0.383L0.093,-0.465C0.142,-0.496 0.199,-0.512 0.263,-0.512C0.38,-0.512 0.439,-0.45 0.439,-0.325L0.439,-0ZM0.359,-0.253L0.238,-0.236C0.201,-0.231 0.173,-0.222 0.154,-0.209C0.135,-0.196 0.126,-0.172 0.126,-0.139C0.126,-0.114 0.135,-0.094 0.152,-0.079C0.17,-0.063 0.193,-0.056 0.222,-0.056C0.261,-0.056 0.294,-0.07 0.32,-0.097C0.346,-0.125 0.359,-0.16 0.359,-0.203L0.359,-0.253Z" style="fill:rgb(102,102,102);fill-rule:nonzero;"/>
                </g>
                <g transform="matrix(10.6604,0,0,10.6604,756.177,556.261)">
                    <path d="M0.303,-0.227L0.161,-0.227L0.161,-0L0.081,-0L0.081,-0.5L0.161,-0.5L0.161,-0.295L0.304,-0.295C0.312,-0.363 0.337,-0.417 0.379,-0.455C0.421,-0.493 0.475,-0.512 0.54,-0.512C0.611,-0.512 0.667,-0.489 0.706,-0.444C0.745,-0.399 0.765,-0.335 0.765,-0.252C0.765,-0.171 0.744,-0.107 0.702,-0.059C0.66,-0.012 0.602,0.012 0.528,0.012C0.459,0.012 0.405,-0.009 0.366,-0.051C0.327,-0.093 0.306,-0.152 0.303,-0.227ZM0.533,-0.444C0.434,-0.444 0.384,-0.379 0.384,-0.249C0.384,-0.12 0.434,-0.056 0.535,-0.056C0.634,-0.056 0.683,-0.12 0.683,-0.249C0.683,-0.379 0.633,-0.444 0.533,-0.444Z" style="fill:rgb(102,102,102);fill-rule:nonzero;"/>
                </g>
                <g transform="matrix(10.6604,0,0,10.6604,764.577,556.261)">
                    <path d="M0.794,0.182L0.724,0.182L0.724,-0L0.081,-0L0.081,-0.5L0.161,-0.5L0.161,-0.068L0.36,-0.068L0.36,-0.5L0.44,-0.5L0.44,-0.068L0.639,-0.068L0.639,-0.5L0.719,-0.5L0.719,-0.068L0.794,-0.068L0.794,0.182Z" style="fill:rgb(102,102,102);fill-rule:nonzero;"/>
                </g>
                <g transform="matrix(10.6604,0,0,10.6604,773.097,556.261)">
                    <path d="M0.5,-0L0.428,-0L0.428,-0.399C0.421,-0.385 0.41,-0.365 0.395,-0.34L0.164,-0L0.081,-0L0.081,-0.5L0.154,-0.5L0.154,-0.106C0.158,-0.115 0.167,-0.132 0.18,-0.154L0.417,-0.5L0.5,-0.5L0.5,-0Z" style="fill:rgb(102,102,102);fill-rule:nonzero;"/>
                </g>
                <g transform="matrix(10.6604,0,0,10.6604,779.025,556.261)">
                    <path d="M0.5,-0L0.428,-0L0.428,-0.399C0.421,-0.385 0.41,-0.365 0.395,-0.34L0.164,-0L0.081,-0L0.081,-0.5L0.154,-0.5L0.154,-0.106C0.158,-0.115 0.167,-0.132 0.18,-0.154L0.417,-0.5L0.5,-0.5L0.5,-0ZM0.471,-0.743C0.466,-0.697 0.447,-0.661 0.415,-0.635C0.383,-0.608 0.343,-0.595 0.295,-0.595C0.245,-0.595 0.205,-0.608 0.174,-0.635C0.143,-0.661 0.126,-0.697 0.123,-0.743L0.202,-0.743C0.207,-0.682 0.238,-0.651 0.296,-0.651C0.322,-0.651 0.343,-0.659 0.36,-0.676C0.377,-0.692 0.388,-0.714 0.392,-0.743L0.471,-0.743Z" style="fill:rgb(102,102,102);fill-rule:nonzero;"/>
                </g>
                <g transform="matrix(10.6604,0,0,10.6604,787.606,556.261)">
                    <path d="M0.579,-0L0.465,-0L0.194,-0.32C0.184,-0.332 0.178,-0.34 0.176,-0.345L0.174,-0.345L0.174,-0L0.092,-0L0.092,-0.7L0.174,-0.7L0.174,-0.371L0.176,-0.371C0.18,-0.378 0.187,-0.386 0.194,-0.395L0.456,-0.7L0.558,-0.7L0.258,-0.364L0.579,-0Z" style="fill:rgb(102,102,102);fill-rule:nonzero;"/>
                </g>
                <g transform="matrix(10.6604,0,0,10.6604,793.524,556.261)">
                    <path d="M0.122,-0.627C0.108,-0.627 0.096,-0.632 0.085,-0.642C0.075,-0.651 0.07,-0.664 0.07,-0.679C0.07,-0.694 0.075,-0.706 0.085,-0.716C0.096,-0.726 0.108,-0.731 0.122,-0.731C0.137,-0.731 0.149,-0.726 0.159,-0.716C0.17,-0.706 0.175,-0.694 0.175,-0.679C0.175,-0.664 0.17,-0.652 0.159,-0.642C0.149,-0.632 0.137,-0.627 0.122,-0.627ZM0.161,-0L0.081,-0L0.081,-0.5L0.161,-0.5L0.161,-0Z" style="fill:rgb(102,102,102);fill-rule:nonzero;"/>
                </g>
                <g transform="matrix(10.6604,0,0,10.6604,795.839,556.261)">
                    <path d="M0.496,-0L0.416,-0L0.416,-0.285C0.416,-0.391 0.377,-0.444 0.3,-0.444C0.26,-0.444 0.227,-0.429 0.2,-0.399C0.174,-0.369 0.161,-0.331 0.161,-0.285L0.161,-0L0.081,-0L0.081,-0.5L0.161,-0.5L0.161,-0.417L0.163,-0.417C0.201,-0.48 0.256,-0.512 0.327,-0.512C0.382,-0.512 0.424,-0.494 0.453,-0.459C0.482,-0.423 0.496,-0.372 0.496,-0.306L0.496,-0Z" style="fill:rgb(102,102,102);fill-rule:nonzero;"/>
                </g>
                <g transform="matrix(10.6604,0,0,10.6604,801.605,556.261)">
                    <path d="M0.29,0.012C0.216,0.012 0.157,-0.012 0.113,-0.058C0.069,-0.105 0.047,-0.167 0.047,-0.244C0.047,-0.328 0.07,-0.394 0.116,-0.441C0.162,-0.488 0.224,-0.512 0.302,-0.512C0.376,-0.512 0.434,-0.489 0.476,-0.443C0.518,-0.397 0.539,-0.333 0.539,-0.252C0.539,-0.172 0.517,-0.108 0.471,-0.06C0.426,-0.012 0.366,0.012 0.29,0.012ZM0.296,-0.444C0.244,-0.444 0.204,-0.427 0.174,-0.392C0.144,-0.357 0.129,-0.309 0.129,-0.247C0.129,-0.188 0.144,-0.141 0.174,-0.107C0.205,-0.073 0.245,-0.056 0.296,-0.056C0.348,-0.056 0.387,-0.072 0.415,-0.106C0.443,-0.139 0.457,-0.187 0.457,-0.249C0.457,-0.312 0.443,-0.36 0.415,-0.394C0.387,-0.427 0.348,-0.444 0.296,-0.444Z" style="fill:rgb(102,102,102);fill-rule:nonzero;"/>
                </g>
                <g transform="matrix(10.6604,0,0,10.6604,807.585,556.261)">
                    <path d="M0.163,-0.072L0.161,-0.072L0.161,0.23L0.081,0.23L0.081,-0.5L0.161,-0.5L0.161,-0.412L0.163,-0.412C0.202,-0.479 0.26,-0.512 0.336,-0.512C0.4,-0.512 0.451,-0.489 0.487,-0.445C0.523,-0.4 0.541,-0.34 0.541,-0.265C0.541,-0.181 0.521,-0.114 0.48,-0.064C0.439,-0.013 0.384,0.012 0.313,0.012C0.248,0.012 0.198,-0.016 0.163,-0.072ZM0.161,-0.274L0.161,-0.204C0.161,-0.163 0.175,-0.128 0.201,-0.099C0.228,-0.07 0.262,-0.056 0.304,-0.056C0.352,-0.056 0.39,-0.074 0.418,-0.111C0.445,-0.148 0.459,-0.2 0.459,-0.266C0.459,-0.322 0.446,-0.365 0.42,-0.397C0.395,-0.429 0.36,-0.444 0.316,-0.444C0.269,-0.444 0.232,-0.428 0.204,-0.396C0.175,-0.363 0.161,-0.323 0.161,-0.274Z" style="fill:rgb(102,102,102);fill-rule:nonzero;"/>
                </g>
                <g transform="matrix(10.6604,0,0,10.6604,813.586,556.261)">
                    <path d="M0.29,0.012C0.216,0.012 0.157,-0.012 0.113,-0.058C0.069,-0.105 0.047,-0.167 0.047,-0.244C0.047,-0.328 0.07,-0.394 0.116,-0.441C0.162,-0.488 0.224,-0.512 0.302,-0.512C0.376,-0.512 0.434,-0.489 0.476,-0.443C0.518,-0.397 0.539,-0.333 0.539,-0.252C0.539,-0.172 0.517,-0.108 0.471,-0.06C0.426,-0.012 0.366,0.012 0.29,0.012ZM0.296,-0.444C0.244,-0.444 0.204,-0.427 0.174,-0.392C0.144,-0.357 0.129,-0.309 0.129,-0.247C0.129,-0.188 0.144,-0.141 0.174,-0.107C0.205,-0.073 0.245,-0.056 0.296,-0.056C0.348,-0.056 0.387,-0.072 0.415,-0.106C0.443,-0.139 0.457,-0.187 0.457,-0.249C0.457,-0.312 0.443,-0.36 0.415,-0.394C0.387,-0.427 0.348,-0.444 0.296,-0.444Z" style="fill:rgb(102,102,102);fill-rule:nonzero;"/>
                </g>
                <g transform="matrix(10.6604,0,0,10.6604,819.566,556.261)">
                    <path d="M0.122,-0.627C0.108,-0.627 0.096,-0.632 0.085,-0.642C0.075,-0.651 0.07,-0.664 0.07,-0.679C0.07,-0.694 0.075,-0.706 0.085,-0.716C0.096,-0.726 0.108,-0.731 0.122,-0.731C0.137,-0.731 0.149,-0.726 0.159,-0.716C0.17,-0.706 0.175,-0.694 0.175,-0.679C0.175,-0.664 0.17,-0.652 0.159,-0.642C0.149,-0.632 0.137,-0.627 0.122,-0.627ZM0.161,-0L0.081,-0L0.081,-0.5L0.161,-0.5L0.161,-0Z" style="fill:rgb(102,102,102);fill-rule:nonzero;"/>
                </g>
                <g transform="matrix(10.6604,0,0,10.6604,821.881,556.261)">
                    <path d="M0.051,-0.018L0.051,-0.104C0.094,-0.072 0.142,-0.056 0.195,-0.056C0.265,-0.056 0.3,-0.079 0.3,-0.126C0.3,-0.139 0.297,-0.151 0.291,-0.16C0.285,-0.169 0.277,-0.177 0.267,-0.185C0.257,-0.192 0.245,-0.198 0.231,-0.204C0.217,-0.21 0.202,-0.215 0.186,-0.222C0.164,-0.23 0.144,-0.239 0.128,-0.248C0.111,-0.257 0.097,-0.267 0.086,-0.279C0.074,-0.29 0.066,-0.303 0.06,-0.317C0.055,-0.331 0.052,-0.348 0.052,-0.367C0.052,-0.391 0.057,-0.411 0.068,-0.429C0.079,-0.448 0.093,-0.463 0.111,-0.475C0.129,-0.487 0.149,-0.496 0.172,-0.502C0.195,-0.509 0.219,-0.512 0.243,-0.512C0.286,-0.512 0.325,-0.504 0.359,-0.489L0.359,-0.408C0.323,-0.432 0.28,-0.444 0.232,-0.444C0.217,-0.444 0.204,-0.443 0.192,-0.439C0.18,-0.436 0.17,-0.431 0.161,-0.425C0.152,-0.419 0.146,-0.411 0.141,-0.403C0.136,-0.394 0.134,-0.384 0.134,-0.374C0.134,-0.361 0.136,-0.35 0.141,-0.341C0.146,-0.333 0.153,-0.325 0.162,-0.318C0.171,-0.311 0.182,-0.305 0.195,-0.299C0.208,-0.294 0.223,-0.288 0.239,-0.281C0.261,-0.273 0.281,-0.264 0.299,-0.255C0.316,-0.246 0.331,-0.236 0.344,-0.225C0.356,-0.214 0.366,-0.201 0.372,-0.186C0.379,-0.171 0.382,-0.154 0.382,-0.134C0.382,-0.109 0.377,-0.088 0.366,-0.069C0.355,-0.051 0.34,-0.036 0.322,-0.024C0.304,-0.012 0.283,-0.003 0.259,0.003C0.236,0.009 0.211,0.012 0.185,0.012C0.133,0.012 0.089,0.002 0.051,-0.018Z" style="fill:rgb(102,102,102);fill-rule:nonzero;"/>
                </g>
                <g transform="matrix(10.6604,0,0,10.6604,826.138,556.261)">
                    <path d="M0.496,-0L0.384,-0L0.163,-0.24L0.161,-0.24L0.161,-0L0.081,-0L0.081,-0.74L0.161,-0.74L0.161,-0.271L0.163,-0.271L0.373,-0.5L0.478,-0.5L0.246,-0.259L0.496,-0Z" style="fill:rgb(102,102,102);fill-rule:nonzero;"/>
                </g>
                <g transform="matrix(10.6604,0,0,10.6604,831.17,556.261)">
                    <path d="M0.109,0.011C0.094,0.011 0.081,0.005 0.071,-0.005C0.06,-0.016 0.055,-0.029 0.055,-0.044C0.055,-0.059 0.06,-0.072 0.071,-0.083C0.081,-0.094 0.094,-0.099 0.109,-0.099C0.124,-0.099 0.137,-0.094 0.148,-0.083C0.159,-0.072 0.164,-0.059 0.164,-0.044C0.164,-0.029 0.159,-0.016 0.148,-0.005C0.137,0.005 0.124,0.011 0.109,0.011Z" style="fill:rgb(102,102,102);fill-rule:nonzero;"/>
                </g>
                <g transform="matrix(10.6604,0,0,10.6604,833.215,556.261)">
                    <path d="M0.342,-0.419C0.328,-0.43 0.308,-0.435 0.281,-0.435C0.247,-0.435 0.219,-0.419 0.196,-0.387C0.173,-0.354 0.161,-0.311 0.161,-0.255L0.161,-0L0.081,-0L0.081,-0.5L0.161,-0.5L0.161,-0.397L0.163,-0.397C0.174,-0.432 0.192,-0.46 0.215,-0.479C0.239,-0.499 0.265,-0.509 0.294,-0.509C0.315,-0.509 0.331,-0.507 0.342,-0.502L0.342,-0.419Z" style="fill:rgb(102,102,102);fill-rule:nonzero;"/>
                </g>
                <g transform="matrix(10.6604,0,0,10.6604,836.655,556.261)">
                    <path d="M0.485,-0L0.405,-0L0.405,-0.079L0.403,-0.079C0.37,-0.019 0.319,0.012 0.249,0.012C0.13,0.012 0.07,-0.059 0.07,-0.201L0.07,-0.5L0.15,-0.5L0.15,-0.214C0.15,-0.108 0.19,-0.056 0.271,-0.056C0.31,-0.056 0.342,-0.07 0.367,-0.099C0.393,-0.128 0.405,-0.165 0.405,-0.212L0.405,-0.5L0.485,-0.5L0.485,-0Z" style="fill:rgb(102,102,102);fill-rule:nonzero;"/>
                </g>
                <g transform="matrix(10.6604,0,0,10.6604,845.075,556.261)">
                    <path d="M0.081,-0L0.081,-0.5L0.299,-0.5C0.348,-0.5 0.387,-0.489 0.415,-0.467C0.444,-0.445 0.458,-0.416 0.458,-0.378C0.458,-0.313 0.426,-0.274 0.362,-0.26C0.439,-0.25 0.477,-0.211 0.477,-0.144C0.477,-0.103 0.461,-0.069 0.43,-0.042C0.399,-0.014 0.36,-0 0.313,-0L0.081,-0ZM0.161,-0.432L0.161,-0.291L0.281,-0.291C0.346,-0.291 0.378,-0.316 0.378,-0.366C0.378,-0.41 0.349,-0.432 0.291,-0.432L0.161,-0.432ZM0.161,-0.223L0.161,-0.068L0.3,-0.068C0.365,-0.068 0.397,-0.095 0.397,-0.147C0.397,-0.197 0.361,-0.223 0.288,-0.223L0.161,-0.223Z" style="fill:rgb(102,102,102);fill-rule:nonzero;"/>
                </g>
                <g transform="matrix(10.6604,0,0,10.6604,853.11,556.261)">
                    <path d="M0.468,-0.746L0.468,-0.671C0.454,-0.661 0.433,-0.654 0.403,-0.649C0.33,-0.638 0.279,-0.627 0.25,-0.617C0.221,-0.607 0.197,-0.585 0.178,-0.551C0.159,-0.518 0.147,-0.469 0.142,-0.404L0.144,-0.404C0.183,-0.461 0.239,-0.489 0.311,-0.489C0.377,-0.489 0.43,-0.467 0.471,-0.421C0.511,-0.376 0.531,-0.316 0.531,-0.242C0.531,-0.166 0.51,-0.104 0.468,-0.058C0.426,-0.011 0.369,0.012 0.298,0.012C0.221,0.012 0.162,-0.016 0.12,-0.07C0.079,-0.125 0.058,-0.202 0.058,-0.304C0.058,-0.382 0.066,-0.449 0.081,-0.504C0.096,-0.559 0.116,-0.6 0.143,-0.628C0.169,-0.656 0.199,-0.675 0.231,-0.685C0.264,-0.695 0.319,-0.708 0.398,-0.722C0.429,-0.729 0.452,-0.737 0.468,-0.746ZM0.141,-0.325L0.141,-0.256C0.141,-0.23 0.145,-0.204 0.153,-0.179C0.16,-0.154 0.171,-0.132 0.185,-0.113C0.199,-0.094 0.216,-0.079 0.235,-0.07C0.254,-0.06 0.275,-0.056 0.3,-0.056C0.344,-0.056 0.38,-0.072 0.408,-0.106C0.435,-0.139 0.449,-0.182 0.449,-0.234C0.449,-0.291 0.435,-0.337 0.407,-0.37C0.379,-0.404 0.341,-0.421 0.293,-0.421C0.226,-0.421 0.175,-0.389 0.141,-0.325Z" style="fill:rgb(102,102,102);fill-rule:nonzero;"/>
                </g>
                <g transform="matrix(10.6604,0,0,10.6604,859.017,556.261)">
                    <path d="M0.483,-0.23L0.13,-0.23C0.131,-0.174 0.146,-0.131 0.175,-0.101C0.203,-0.071 0.243,-0.056 0.293,-0.056C0.349,-0.056 0.401,-0.074 0.448,-0.111L0.448,-0.036C0.404,-0.004 0.346,0.012 0.274,0.012C0.203,0.012 0.148,-0.011 0.107,-0.056C0.067,-0.102 0.047,-0.166 0.047,-0.248C0.047,-0.326 0.069,-0.389 0.113,-0.438C0.157,-0.487 0.212,-0.512 0.277,-0.512C0.343,-0.512 0.393,-0.491 0.429,-0.448C0.465,-0.406 0.483,-0.347 0.483,-0.272L0.483,-0.23ZM0.401,-0.298C0.401,-0.344 0.389,-0.38 0.367,-0.406C0.345,-0.431 0.315,-0.444 0.276,-0.444C0.238,-0.444 0.206,-0.431 0.18,-0.404C0.153,-0.377 0.137,-0.341 0.131,-0.298L0.401,-0.298Z" style="fill:rgb(102,102,102);fill-rule:nonzero;"/>
                </g>
                <g transform="matrix(10.6604,0,0,10.6604,864.325,556.261)">
                    <path d="M0.422,-0.023C0.383,0 0.338,0.012 0.285,0.012C0.214,0.012 0.156,-0.011 0.113,-0.058C0.069,-0.104 0.047,-0.164 0.047,-0.238C0.047,-0.321 0.07,-0.387 0.118,-0.437C0.165,-0.487 0.228,-0.512 0.307,-0.512C0.351,-0.512 0.389,-0.504 0.423,-0.487L0.423,-0.405C0.386,-0.431 0.346,-0.444 0.304,-0.444C0.253,-0.444 0.211,-0.426 0.178,-0.389C0.145,-0.353 0.129,-0.305 0.129,-0.245C0.129,-0.187 0.144,-0.14 0.175,-0.106C0.206,-0.073 0.247,-0.056 0.299,-0.056C0.342,-0.056 0.383,-0.07 0.422,-0.099L0.422,-0.023Z" style="fill:rgb(102,102,102);fill-rule:nonzero;"/>
                </g>
                <g transform="matrix(10.6604,0,0,10.6604,868.983,556.261)">
                    <path d="M0.496,-0L0.416,-0L0.416,-0.432L0.161,-0.432L0.161,-0L0.081,-0L0.081,-0.5L0.496,-0.5L0.496,-0Z" style="fill:rgb(102,102,102);fill-rule:nonzero;"/>
                </g>
                <g transform="matrix(10.6604,0,0,10.6604,874.869,556.261)">
                    <path d="M0.446,-0L0.366,-0L0.366,-0.432L0.25,-0.432C0.237,-0.27 0.214,-0.157 0.181,-0.091C0.149,-0.026 0.105,0.007 0.051,0.007C0.034,0.007 0.02,0.005 0.008,-0L0.008,-0.069C0.019,-0.063 0.032,-0.06 0.045,-0.06C0.117,-0.06 0.163,-0.207 0.183,-0.5L0.446,-0.5L0.446,-0Z" style="fill:rgb(102,102,102);fill-rule:nonzero;"/>
                </g>
                <g transform="matrix(10.6604,0,0,10.6604,880.219,556.261)">
                    <path d="M0.439,-0L0.359,-0L0.359,-0.078L0.357,-0.078C0.322,-0.018 0.271,0.012 0.203,0.012C0.153,0.012 0.114,-0.001 0.086,-0.028C0.058,-0.054 0.044,-0.089 0.044,-0.133C0.044,-0.226 0.099,-0.281 0.209,-0.296L0.359,-0.317C0.359,-0.402 0.325,-0.444 0.256,-0.444C0.196,-0.444 0.141,-0.424 0.093,-0.383L0.093,-0.465C0.142,-0.496 0.199,-0.512 0.263,-0.512C0.38,-0.512 0.439,-0.45 0.439,-0.325L0.439,-0ZM0.359,-0.253L0.238,-0.236C0.201,-0.231 0.173,-0.222 0.154,-0.209C0.135,-0.196 0.126,-0.172 0.126,-0.139C0.126,-0.114 0.135,-0.094 0.152,-0.079C0.17,-0.063 0.193,-0.056 0.222,-0.056C0.261,-0.056 0.294,-0.07 0.32,-0.097C0.346,-0.125 0.359,-0.16 0.359,-0.203L0.359,-0.253Z" style="fill:rgb(102,102,102);fill-rule:nonzero;"/>
                </g>
                <g transform="matrix(10.6604,0,0,10.6604,885.376,556.261)">
                    <path d="M0.395,-0.432L0.245,-0.432L0.245,-0L0.165,-0L0.165,-0.432L0.015,-0.432L0.015,-0.5L0.395,-0.5L0.395,-0.432Z" style="fill:rgb(102,102,102);fill-rule:nonzero;"/>
                </g>
                <g transform="matrix(10.6604,0,0,10.6604,889.482,556.261)">
                    <path d="M0.496,-0L0.416,-0L0.416,-0.227L0.161,-0.227L0.161,-0L0.081,-0L0.081,-0.5L0.161,-0.5L0.161,-0.295L0.416,-0.295L0.416,-0.5L0.496,-0.5L0.496,-0Z" style="fill:rgb(102,102,102);fill-rule:nonzero;"/>
                </g>
                <g transform="matrix(10.6604,0,0,10.6604,895.368,556.261)">
                    <path d="M0.628,-0L0.549,-0L0.549,-0.5L0.628,-0.5L0.628,-0ZM0.081,-0L0.081,-0.5L0.161,-0.5L0.161,-0.308L0.296,-0.308C0.347,-0.308 0.388,-0.295 0.418,-0.268C0.448,-0.241 0.463,-0.204 0.463,-0.156C0.463,-0.108 0.448,-0.07 0.417,-0.042C0.387,-0.014 0.349,-0 0.303,-0L0.081,-0ZM0.161,-0.239L0.161,-0.068L0.281,-0.068C0.348,-0.068 0.381,-0.098 0.381,-0.156C0.381,-0.212 0.347,-0.239 0.28,-0.239L0.161,-0.239Z" style="fill:rgb(102,102,102);fill-rule:nonzero;"/>
                </g>
                <g transform="matrix(10.6604,0,0,10.6604,902.665,556.261)">
                    <path d="M0.5,-0L0.428,-0L0.428,-0.399C0.421,-0.385 0.41,-0.365 0.395,-0.34L0.164,-0L0.081,-0L0.081,-0.5L0.154,-0.5L0.154,-0.106C0.158,-0.115 0.167,-0.132 0.18,-0.154L0.417,-0.5L0.5,-0.5L0.5,-0ZM0.471,-0.743C0.466,-0.697 0.447,-0.661 0.415,-0.635C0.383,-0.608 0.343,-0.595 0.295,-0.595C0.245,-0.595 0.205,-0.608 0.174,-0.635C0.143,-0.661 0.126,-0.697 0.123,-0.743L0.202,-0.743C0.207,-0.682 0.238,-0.651 0.296,-0.651C0.322,-0.651 0.343,-0.659 0.36,-0.676C0.377,-0.692 0.388,-0.714 0.392,-0.743L0.471,-0.743Z" style="fill:rgb(102,102,102);fill-rule:nonzero;"/>
                </g>
                <g transform="matrix(10.6604,0,0,10.6604,911.247,556.261)">
                    <path d="M0.29,0.012C0.216,0.012 0.157,-0.012 0.113,-0.058C0.069,-0.105 0.047,-0.167 0.047,-0.244C0.047,-0.328 0.07,-0.394 0.116,-0.441C0.162,-0.488 0.224,-0.512 0.302,-0.512C0.376,-0.512 0.434,-0.489 0.476,-0.443C0.518,-0.397 0.539,-0.333 0.539,-0.252C0.539,-0.172 0.517,-0.108 0.471,-0.06C0.426,-0.012 0.366,0.012 0.29,0.012ZM0.296,-0.444C0.244,-0.444 0.204,-0.427 0.174,-0.392C0.144,-0.357 0.129,-0.309 0.129,-0.247C0.129,-0.188 0.144,-0.141 0.174,-0.107C0.205,-0.073 0.245,-0.056 0.296,-0.056C0.348,-0.056 0.387,-0.072 0.415,-0.106C0.443,-0.139 0.457,-0.187 0.457,-0.249C0.457,-0.312 0.443,-0.36 0.415,-0.394C0.387,-0.427 0.348,-0.444 0.296,-0.444Z" style="fill:rgb(102,102,102);fill-rule:nonzero;"/>
                </g>
                <g transform="matrix(10.6604,0,0,10.6604,917.226,556.261)">
                    <path d="M0.496,-0L0.416,-0L0.416,-0.227L0.161,-0.227L0.161,-0L0.081,-0L0.081,-0.5L0.161,-0.5L0.161,-0.295L0.416,-0.295L0.416,-0.5L0.496,-0.5L0.496,-0Z" style="fill:rgb(102,102,102);fill-rule:nonzero;"/>
                </g>
                <g transform="matrix(10.6604,0,0,10.6604,923.113,556.261)">
                    <path d="M0.446,-0L0.366,-0L0.366,-0.432L0.25,-0.432C0.237,-0.27 0.214,-0.157 0.181,-0.091C0.149,-0.026 0.105,0.007 0.051,0.007C0.034,0.007 0.02,0.005 0.008,-0L0.008,-0.069C0.019,-0.063 0.032,-0.06 0.045,-0.06C0.117,-0.06 0.163,-0.207 0.183,-0.5L0.446,-0.5L0.446,-0Z" style="fill:rgb(102,102,102);fill-rule:nonzero;"/>
                </g>
                <g transform="matrix(10.6604,0,0,10.6604,928.463,556.261)">
                    <path d="M0.439,-0L0.359,-0L0.359,-0.078L0.357,-0.078C0.322,-0.018 0.271,0.012 0.203,0.012C0.153,0.012 0.114,-0.001 0.086,-0.028C0.058,-0.054 0.044,-0.089 0.044,-0.133C0.044,-0.226 0.099,-0.281 0.209,-0.296L0.359,-0.317C0.359,-0.402 0.325,-0.444 0.256,-0.444C0.196,-0.444 0.141,-0.424 0.093,-0.383L0.093,-0.465C0.142,-0.496 0.199,-0.512 0.263,-0.512C0.38,-0.512 0.439,-0.45 0.439,-0.325L0.439,-0ZM0.359,-0.253L0.238,-0.236C0.201,-0.231 0.173,-0.222 0.154,-0.209C0.135,-0.196 0.126,-0.172 0.126,-0.139C0.126,-0.114 0.135,-0.094 0.152,-0.079C0.17,-0.063 0.193,-0.056 0.222,-0.056C0.261,-0.056 0.294,-0.07 0.32,-0.097C0.346,-0.125 0.359,-0.16 0.359,-0.203L0.359,-0.253Z" style="fill:rgb(102,102,102);fill-rule:nonzero;"/>
                </g>
                <g transform="matrix(10.6604,0,0,10.6604,933.62,556.261)">
                    <path d="M0.5,-0L0.428,-0L0.428,-0.399C0.421,-0.385 0.41,-0.365 0.395,-0.34L0.164,-0L0.081,-0L0.081,-0.5L0.154,-0.5L0.154,-0.106C0.158,-0.115 0.167,-0.132 0.18,-0.154L0.417,-0.5L0.5,-0.5L0.5,-0ZM0.471,-0.743C0.466,-0.697 0.447,-0.661 0.415,-0.635C0.383,-0.608 0.343,-0.595 0.295,-0.595C0.245,-0.595 0.205,-0.608 0.174,-0.635C0.143,-0.661 0.126,-0.697 0.123,-0.743L0.202,-0.743C0.207,-0.682 0.238,-0.651 0.296,-0.651C0.322,-0.651 0.343,-0.659 0.36,-0.676C0.377,-0.692 0.388,-0.714 0.392,-0.743L0.471,-0.743Z" style="fill:rgb(102,102,102);fill-rule:nonzero;"/>
                </g>
                <g transform="matrix(10.6604,0,0,10.6604,939.548,556.261)">
                    <path d="M0.496,-0L0.416,-0L0.416,-0.227L0.161,-0.227L0.161,-0L0.081,-0L0.081,-0.5L0.161,-0.5L0.161,-0.295L0.416,-0.295L0.416,-0.5L0.496,-0.5L0.496,-0Z" style="fill:rgb(102,102,102);fill-rule:nonzero;"/>
                </g>
                <g transform="matrix(10.6604,0,0,10.6604,948.088,556.261)">
                    <rect x="0.07" y="-0.31" width="0.267" height="0.063" style="fill:rgb(102,102,102);fill-rule:nonzero;"/>
                </g>
                <g transform="matrix(10.6604,0,0,10.6604,954.738,556.261)">
                    <path d="M0.496,-0L0.384,-0L0.163,-0.24L0.161,-0.24L0.161,-0L0.081,-0L0.081,-0.5L0.161,-0.5L0.161,-0.271L0.163,-0.271L0.373,-0.5L0.478,-0.5L0.246,-0.259L0.496,-0Z" style="fill:rgb(102,102,102);fill-rule:nonzero;"/>
                </g>
                <g transform="matrix(10.6604,0,0,10.6604,959.77,556.261)">
                    <path d="M0.5,-0L0.428,-0L0.428,-0.399C0.421,-0.385 0.41,-0.365 0.395,-0.34L0.164,-0L0.081,-0L0.081,-0.5L0.154,-0.5L0.154,-0.106C0.158,-0.115 0.167,-0.132 0.18,-0.154L0.417,-0.5L0.5,-0.5L0.5,-0Z" style="fill:rgb(102,102,102);fill-rule:nonzero;"/>
                </g>
                <g transform="matrix(10.6604,0,0,10.6604,965.698,556.261)">
                    <path d="M0.496,-0L0.416,-0L0.416,-0.227L0.161,-0.227L0.161,-0L0.081,-0L0.081,-0.5L0.161,-0.5L0.161,-0.295L0.416,-0.295L0.416,-0.5L0.496,-0.5L0.496,-0Z" style="fill:rgb(102,102,102);fill-rule:nonzero;"/>
                </g>
                <g transform="matrix(10.6604,0,0,10.6604,971.584,556.261)">
                    <path d="M0.29,0.012C0.216,0.012 0.157,-0.012 0.113,-0.058C0.069,-0.105 0.047,-0.167 0.047,-0.244C0.047,-0.328 0.07,-0.394 0.116,-0.441C0.162,-0.488 0.224,-0.512 0.302,-0.512C0.376,-0.512 0.434,-0.489 0.476,-0.443C0.518,-0.397 0.539,-0.333 0.539,-0.252C0.539,-0.172 0.517,-0.108 0.471,-0.06C0.426,-0.012 0.366,0.012 0.29,0.012ZM0.296,-0.444C0.244,-0.444 0.204,-0.427 0.174,-0.392C0.144,-0.357 0.129,-0.309 0.129,-0.247C0.129,-0.188 0.144,-0.141 0.174,-0.107C0.205,-0.073 0.245,-0.056 0.296,-0.056C0.348,-0.056 0.387,-0.072 0.415,-0.106C0.443,-0.139 0.457,-0.187 0.457,-0.249C0.457,-0.312 0.443,-0.36 0.415,-0.394C0.387,-0.427 0.348,-0.444 0.296,-0.444Z" style="fill:rgb(102,102,102);fill-rule:nonzero;"/>
                </g>
                <g transform="matrix(10.6604,0,0,10.6604,977.564,556.261)">
                    <path d="M0.395,-0.432L0.245,-0.432L0.245,-0L0.165,-0L0.165,-0.432L0.015,-0.432L0.015,-0.5L0.395,-0.5L0.395,-0.432Z" style="fill:rgb(102,102,102);fill-rule:nonzero;"/>
                </g>
                <g transform="matrix(10.6604,0,0,10.6604,981.67,556.261)">
                    <path d="M0.483,-0.23L0.13,-0.23C0.131,-0.174 0.146,-0.131 0.175,-0.101C0.203,-0.071 0.243,-0.056 0.293,-0.056C0.349,-0.056 0.401,-0.074 0.448,-0.111L0.448,-0.036C0.404,-0.004 0.346,0.012 0.274,0.012C0.203,0.012 0.148,-0.011 0.107,-0.056C0.067,-0.102 0.047,-0.166 0.047,-0.248C0.047,-0.326 0.069,-0.389 0.113,-0.438C0.157,-0.487 0.212,-0.512 0.277,-0.512C0.343,-0.512 0.393,-0.491 0.429,-0.448C0.465,-0.406 0.483,-0.347 0.483,-0.272L0.483,-0.23ZM0.401,-0.298C0.401,-0.344 0.389,-0.38 0.367,-0.406C0.345,-0.431 0.315,-0.444 0.276,-0.444C0.238,-0.444 0.206,-0.431 0.18,-0.404C0.153,-0.377 0.137,-0.341 0.131,-0.298L0.401,-0.298Z" style="fill:rgb(102,102,102);fill-rule:nonzero;"/>
                </g>
                <g transform="matrix(10.6604,0,0,10.6604,986.978,556.261)">
                    <path d="M0.439,-0L0.359,-0L0.359,-0.078L0.357,-0.078C0.322,-0.018 0.271,0.012 0.203,0.012C0.153,0.012 0.114,-0.001 0.086,-0.028C0.058,-0.054 0.044,-0.089 0.044,-0.133C0.044,-0.226 0.099,-0.281 0.209,-0.296L0.359,-0.317C0.359,-0.402 0.325,-0.444 0.256,-0.444C0.196,-0.444 0.141,-0.424 0.093,-0.383L0.093,-0.465C0.142,-0.496 0.199,-0.512 0.263,-0.512C0.38,-0.512 0.439,-0.45 0.439,-0.325L0.439,-0ZM0.359,-0.253L0.238,-0.236C0.201,-0.231 0.173,-0.222 0.154,-0.209C0.135,-0.196 0.126,-0.172 0.126,-0.139C0.126,-0.114 0.135,-0.094 0.152,-0.079C0.17,-0.063 0.193,-0.056 0.222,-0.056C0.261,-0.056 0.294,-0.07 0.32,-0.097C0.346,-0.125 0.359,-0.16 0.359,-0.203L0.359,-0.253Z" style="fill:rgb(102,102,102);fill-rule:nonzero;"/>
                </g>
                <g transform="matrix(10.6604,0,0,10.6604,992.136,556.261)">
                    <path d="M0.395,-0.432L0.245,-0.432L0.245,-0L0.165,-0L0.165,-0.432L0.015,-0.432L0.015,-0.5L0.395,-0.5L0.395,-0.432Z" style="fill:rgb(102,102,102);fill-rule:nonzero;"/>
                </g>
                <g transform="matrix(10.6604,0,0,10.6604,996.242,556.261)">
                    <path d="M0.163,-0.072L0.161,-0.072L0.161,0.23L0.081,0.23L0.081,-0.5L0.161,-0.5L0.161,-0.412L0.163,-0.412C0.202,-0.479 0.26,-0.512 0.336,-0.512C0.4,-0.512 0.451,-0.489 0.487,-0.445C0.523,-0.4 0.541,-0.34 0.541,-0.265C0.541,-0.181 0.521,-0.114 0.48,-0.064C0.439,-0.013 0.384,0.012 0.313,0.012C0.248,0.012 0.198,-0.016 0.163,-0.072ZM0.161,-0.274L0.161,-0.204C0.161,-0.163 0.175,-0.128 0.201,-0.099C0.228,-0.07 0.262,-0.056 0.304,-0.056C0.352,-0.056 0.39,-0.074 0.418,-0.111C0.445,-0.148 0.459,-0.2 0.459,-0.266C0.459,-0.322 0.446,-0.365 0.42,-0.397C0.395,-0.429 0.36,-0.444 0.316,-0.444C0.269,-0.444 0.232,-0.428 0.204,-0.396C0.175,-0.363 0.161,-0.323 0.161,-0.274Z" style="fill:rgb(102,102,102);fill-rule:nonzero;"/>
                </g>
                <g transform="matrix(10.6604,0,0,10.6604,1002.24,556.261)">
                    <path d="M0.183,-0.7L0.174,-0.197L0.108,-0.197L0.099,-0.7L0.183,-0.7ZM0.142,0.009C0.127,0.009 0.114,0.004 0.104,-0.007C0.093,-0.017 0.088,-0.03 0.088,-0.045C0.088,-0.06 0.093,-0.073 0.104,-0.083C0.114,-0.094 0.127,-0.099 0.142,-0.099C0.157,-0.099 0.169,-0.094 0.18,-0.083C0.191,-0.073 0.196,-0.06 0.196,-0.045C0.196,-0.03 0.191,-0.017 0.18,-0.007C0.169,0.004 0.157,0.009 0.142,0.009Z" style="fill:rgb(102,102,102);fill-rule:nonzero;"/>
                </g>
            </g>
            <g transform="matrix(6.23876,0,0,6.23876,-3128.53,-3013.3)">
                <g transform="matrix(12,0,0,12,608.946,536.062)">
                    <path d="M0.611,-0.701L0.447,-0.701L0.181,-0.405L0.181,-0.701L0.049,-0.701L0.049,-0L0.181,-0L0.181,-0.31L0.474,-0L0.637,-0L0.637,-0.008L0.3,-0.362L0.611,-0.697L0.611,-0.701Z" style="fill:white;fill-rule:nonzero;"/>
                </g>
                <g transform="matrix(12,0,0,12,616.806,536.062)">
                    <path d="M0.162,-0.495L0.162,-0L0.04,-0L0.04,-0.495L0.162,-0.495ZM0.029,-0.632C0.029,-0.537 0.173,-0.537 0.173,-0.632C0.173,-0.727 0.029,-0.727 0.029,-0.632Z" style="fill:white;fill-rule:nonzero;"/>
                </g>
                <g transform="matrix(12,0,0,12,619.59,536.062)">
                    <path d="M0.525,-0L0.525,-0.259C0.525,-0.414 0.432,-0.501 0.316,-0.501C0.254,-0.501 0.204,-0.476 0.154,-0.427L0.146,-0.494L0.037,-0.494L0.037,-0L0.158,-0L0.158,-0.252C0.158,-0.327 0.209,-0.39 0.284,-0.39C0.362,-0.39 0.403,-0.333 0.403,-0.258L0.403,-0L0.525,-0Z" style="fill:white;fill-rule:nonzero;"/>
                </g>
                <g transform="matrix(12,0,0,12,626.67,536.062)">
                    <path d="M0.272,-0.503C0.115,-0.503 0.017,-0.387 0.017,-0.246C0.017,-0.104 0.113,0.011 0.273,0.011C0.433,0.011 0.53,-0.104 0.53,-0.246C0.53,-0.387 0.429,-0.503 0.272,-0.503ZM0.273,-0.392C0.355,-0.392 0.407,-0.32 0.407,-0.246C0.407,-0.171 0.362,-0.101 0.273,-0.101C0.184,-0.101 0.139,-0.171 0.139,-0.246C0.139,-0.32 0.185,-0.392 0.273,-0.392Z" style="fill:white;fill-rule:nonzero;"/>
                </g>
                <g transform="matrix(12,0,0,12,633.558,536.062)">
                    <path d="M0.313,-0.106C0.23,-0.106 0.173,-0.169 0.173,-0.246C0.173,-0.323 0.225,-0.386 0.313,-0.386C0.401,-0.386 0.453,-0.323 0.453,-0.246C0.453,-0.169 0.396,-0.106 0.313,-0.106ZM0.162,0.206L0.162,-0.058C0.197,-0.004 0.274,0.012 0.326,0.012C0.484,0.012 0.575,-0.102 0.575,-0.246C0.575,-0.391 0.474,-0.504 0.322,-0.504C0.266,-0.504 0.2,-0.48 0.162,-0.425L0.154,-0.493L0.04,-0.493L0.04,0.206L0.162,0.206Z" style="fill:white;fill-rule:nonzero;"/>
                </g>
                <g transform="matrix(12,0,0,12,641.058,536.062)">
                    <path d="M0.272,-0.503C0.115,-0.503 0.017,-0.387 0.017,-0.246C0.017,-0.104 0.113,0.011 0.273,0.011C0.433,0.011 0.53,-0.104 0.53,-0.246C0.53,-0.387 0.429,-0.503 0.272,-0.503ZM0.273,-0.392C0.355,-0.392 0.407,-0.32 0.407,-0.246C0.407,-0.171 0.362,-0.101 0.273,-0.101C0.184,-0.101 0.139,-0.171 0.139,-0.246C0.139,-0.32 0.185,-0.392 0.273,-0.392Z" style="fill:white;fill-rule:nonzero;"/>
                </g>
                <g transform="matrix(12,0,0,12,647.946,536.062)">
                    <path d="M0.162,-0.495L0.162,-0L0.04,-0L0.04,-0.495L0.162,-0.495ZM0.029,-0.632C0.029,-0.537 0.173,-0.537 0.173,-0.632C0.173,-0.727 0.029,-0.727 0.029,-0.632Z" style="fill:white;fill-rule:nonzero;"/>
                </g>
                <g transform="matrix(12,0,0,12,650.73,536.062)">
                    <path d="M0.43,-0.442C0.373,-0.492 0.315,-0.507 0.238,-0.507C0.148,-0.507 0.03,-0.467 0.03,-0.353C0.03,-0.241 0.141,-0.207 0.234,-0.2C0.304,-0.196 0.332,-0.182 0.332,-0.148C0.332,-0.112 0.289,-0.088 0.243,-0.089C0.188,-0.09 0.108,-0.119 0.073,-0.158L0.013,-0.071C0.085,0.004 0.163,0.017 0.241,0.017C0.382,0.017 0.453,-0.058 0.453,-0.145C0.453,-0.276 0.335,-0.297 0.242,-0.303C0.179,-0.307 0.15,-0.325 0.15,-0.357C0.15,-0.388 0.182,-0.406 0.24,-0.406C0.287,-0.406 0.327,-0.395 0.362,-0.362L0.43,-0.442Z" style="fill:white;fill-rule:nonzero;"/>
                </g>
                <g transform="matrix(12,0,0,12,656.622,536.062)">
                    <path d="M0.037,-0.699L0.037,-0L0.159,-0L0.159,-0.223L0.352,-0L0.499,-0L0.499,-0.009L0.27,-0.261L0.471,-0.486L0.471,-0.493L0.325,-0.493L0.159,-0.295L0.159,-0.699L0.037,-0.699Z" style="fill:white;fill-rule:nonzero;"/>
                </g>
                <g transform="matrix(12,0,0,12,665.226,536.062)">
                    <path d="M1.057,-0.701L0.909,-0.701L0.749,-0.195L0.574,-0.701L0.488,-0.701L0.318,-0.195L0.153,-0.701L0.005,-0.701L0.262,-0L0.374,-0L0.459,-0.218L0.532,-0.442L0.606,-0.22L0.693,-0L0.805,-0L1.057,-0.701Z" style="fill:white;fill-rule:nonzero;"/>
                </g>
                <g transform="matrix(12,0,0,12,677.298,536.062)">
                    <path d="M0.427,-0.425C0.399,-0.474 0.336,-0.505 0.27,-0.505C0.126,-0.506 0.013,-0.417 0.013,-0.247C0.013,-0.074 0.121,0.016 0.267,0.015C0.322,0.014 0.399,-0.014 0.427,-0.072L0.433,-0L0.548,-0L0.548,-0.493L0.431,-0.493L0.427,-0.425ZM0.281,-0.396C0.473,-0.396 0.473,-0.097 0.281,-0.097C0.2,-0.097 0.135,-0.153 0.135,-0.247C0.135,-0.341 0.2,-0.396 0.281,-0.396Z" style="fill:white;fill-rule:nonzero;"/>
                </g>
                <g transform="matrix(12,0,0,12,684.378,536.062)">
                    <path d="M0.09,-0.619L0.09,-0.492L-0.002,-0.492L-0.002,-0.387L0.09,-0.387L0.09,-0.174C0.09,-0.051 0.16,0.01 0.267,0.006C0.304,0.005 0.333,-0.001 0.368,-0.015L0.334,-0.119C0.316,-0.11 0.294,-0.104 0.275,-0.104C0.237,-0.104 0.211,-0.127 0.211,-0.174L0.211,-0.387L0.348,-0.387L0.348,-0.492L0.212,-0.492L0.212,-0.632L0.09,-0.619Z" style="fill:white;fill-rule:nonzero;"/>
                </g>
                <g transform="matrix(12,0,0,12,689.166,536.062)">
                    <path d="M0.381,-0.143C0.351,-0.113 0.312,-0.102 0.273,-0.102C0.197,-0.102 0.133,-0.152 0.133,-0.246C0.133,-0.332 0.193,-0.392 0.275,-0.392C0.309,-0.392 0.345,-0.379 0.374,-0.353L0.451,-0.434C0.397,-0.487 0.343,-0.507 0.273,-0.507C0.13,-0.507 0.011,-0.421 0.011,-0.246C0.011,-0.071 0.13,0.015 0.273,0.015C0.346,0.015 0.406,-0.007 0.463,-0.063L0.381,-0.143Z" style="fill:white;fill-rule:nonzero;"/>
                </g>
                <g transform="matrix(12,0,0,12,694.89,536.062)">
                    <path d="M0.04,-0.701L0.04,-0L0.162,-0L0.162,-0.252C0.162,-0.326 0.212,-0.387 0.284,-0.387C0.349,-0.387 0.396,-0.349 0.396,-0.259L0.396,-0L0.518,-0L0.518,-0.26C0.518,-0.405 0.456,-0.5 0.316,-0.5C0.26,-0.5 0.206,-0.483 0.162,-0.426L0.162,-0.701L0.04,-0.701Z" style="fill:white;fill-rule:nonzero;"/>
                </g>
            </g>
        </g>
    </g>
    <defs>
        <linearGradient id="_Linear1" x1="0" y1="0" x2="1" y2="0" gradientUnits="userSpaceOnUse" gradientTransform="matrix(128,512,-2048,512,0,0)"><stop offset="0" style="stop-color:rgb(255,0,85);stop-opacity:1"/><stop offset="1" style="stop-color:rgb(255,85,0);stop-opacity:1"/></linearGradient>
    </defs>
</svg>
